<svg version="1.1" id="Layer_1" xmlns="http://www.w3.org/2000/svg" xmlns:xlink="http://www.w3.org/1999/xlink" x="0px" y="0px"
        viewBox="0 0 28 221" style="enable-background:new 0 0 28 221;" xml:space="preserve">
    <style type="text/css">
        .st0{fill:#FFFFFF;}
    </style>
    <g>
        <path class="st0" d="M15.2,123.7H0.7V97.4h12.5c0,0.1,0,0.2,0,0.4c0.4,2.1,0.9,4.1,1.3,6.2c0.2,0.9,0.4,1.9,0.4,2.9
            c0,0.8-0.2,1.7-1,2.2c-0.6,0.4-1.4,0.5-2.1,0.6c-0.4,0.1-0.4,0.2-0.4,0.5c0.4,1.3,0.7,2.6,1.1,4c0.7,2.6,1.4,5.3,2.2,7.9
            C14.9,122.6,15.1,123.2,15.2,123.7z M15.4,97.4c0.4,2.1,0.9,4.2,1.3,6.3c0.2,1.1,0.5,2.1,0.4,3.2c-0.1,2-1,3.5-2.8,4.3
            c-0.1,0-0.2,0.3-0.2,0.4c0.4,1.6,0.9,3.2,1.3,4.9c0.6,2.3,1.3,4.6,1.9,6.9c0,0.1,0,0.2,0,0.3H27V97.4H15.4z M14.4,0.3
            C14.2,0.7,14,1,13.8,1.4c-0.6,1.3-1.1,2.7-1.2,4.1c-0.2,2.1,0.4,4.1,1.4,5.9c1.1,2,2.2,4.1,2.7,6.4c0.7,3.2,0.4,6.2-1.3,8.9h11.9
            V0.3H14.4z M13,26.4c0.9-1.3,1.6-2.7,1.8-4.4c0.2-1.8,0-3.5-0.7-5.2c-0.5-1.3-1.1-2.6-1.8-3.8c-0.8-1.5-1.5-3.1-1.7-4.8
            c-0.1-0.8-0.2-1.7-0.2-2.5c0-1.5,0.4-3,1-4.5c0.1-0.3,0.3-0.7,0.5-1H0.8v26.5h12C12.9,26.7,13,26.5,13,26.4z M12.9,194.5H1V221
            h11.9V194.5z M15.1,194.5V221H27v-26.5H15.1z"/>
    </g>
</svg>